# xmcd
#
# Track frame offsets:
# 150
# 19509
# 40792
# 60177
#
# Disc length: 1078 seconds
#
#
# Revision: 1
# Processed by: cddbd v1.5PL3 Copyright (c) Steve Scherf et al.
# Submitted via: FreeRIP 2.51 
#
DISCID=20043404
DTITLE=Amuro Namie - Alarm
DYEAR=2004
DGENRE=Vocal
TTITLE0=Alarm
TTITLE1=Strobe
TTITLE2=Alarm -instrumental-
TTITLE3=Strobe -instrumental-
EXTD=
EXTT0=
EXTT1=
EXTT2=
EXTT3=
PLAYORDER=
